<svg xmlns="http://www.w3.org/2000/svg" width="16" height="20" viewBox="0 0 16 20">
    <g fill="#E94457" fill-rule="nonzero" opacity=".7">
        <path d="M5.274 6.027h1.22v9.761h-1.22zM7.534 6.027h1.22v9.761h-1.22zM9.795 6.027h1.22v9.761h-1.22zM0 2.26h15.861v1.22H0z"/>
        <path d="M11.293 3.01h-1.139V1.79a.642.642 0 0 0-.65-.651h-2.44a.642.642 0 0 0-.651.65v1.22H5.274V1.79C5.274.813 6.087 0 7.064 0h2.44c.976 0 1.79.813 1.79 1.79v1.22M11.878 19.526h-7.32c-.977 0-1.831-.814-1.912-1.79L1.506 3.095l1.22-.081 1.14 14.64c.04.367.366.652.691.652h7.32c.367 0 .692-.326.692-.651l1.139-14.641 1.22.081-1.139 14.641c-.081 1.017-.935 1.79-1.911 1.79"/>
    </g>
</svg>
