<svg xmlns="http://www.w3.org/2000/svg" width="349" height="66" viewBox="0 0 349 66">
    <g fill="#000" fill-rule="evenodd">
        <path d="M2.876 35V9.38h10.06c5.162 0 6.807 3.612 6.807 6.702 0 2.527-.809 4.932-3.299 5.618 1.703.36 3.512 2.264 3.512 6.055 0 3.896-1.605 7.245-6.995 7.245H2.876zm3.25-3.063h6.783c1.628 0 3.827-.523 3.827-4.294 0-2.396-1.123-4.543-3.827-4.543H6.126v8.837zm0-11.847h6.73c2.39 0 3.688-1.31 3.688-3.897 0-3.117-2.025-3.75-3.687-3.75H6.126v7.647zm26.68 10.343V9.38h3.22v20.685c0 1.855 1.155 1.82 2.17 1.82h10.185V35H37.724c-2.441 0-4.918-.612-4.918-4.567zM59.98 35l9.205-25.62h3.404L81.4 35h-3.663l-2.1-6.741h-9.721L63.732 35H59.98zm6.97-9.809h7.709L70.87 14.018 66.95 25.19zM91.57 22.12c0-8.19 1.622-13.02 8.587-13.02 2.303 0 6.111.399 8.645.954v2.548c-.035 0-5.052-.387-8.33-.387-4.16 0-5.682 1.675-5.682 9.975 0 5.74 1.2 9.905 5.688 9.905 3.674 0 8.324-.256 8.324-.256v2.549c-2.408.523-6.32.838-8.645.822-6.475-.016-8.587-5.402-8.587-13.09zM121.546 35V9.38h3.168v11.27h2.65l7.624-11.27h3.848l-8.552 12.79L138.836 35h-3.848l-7.625-11.288h-2.614V35h-3.203zm27.118-12.88c0-8.19 1.622-13.02 8.587-13.02 2.303 0 6.111.399 8.645.954v2.548c-.035 0-5.052-.387-8.33-.387-4.16 0-5.682 1.675-5.682 9.975 0 5.74 1.2 9.905 5.688 9.905 3.674 0 8.324-.256 8.324-.256v2.549c-2.408.523-6.32.838-8.645.822-6.475-.016-8.587-5.402-8.587-13.09zM177.495 35L186.7 9.38h3.404L198.915 35h-3.663l-2.1-6.741h-9.721L181.247 35h-3.752zm6.97-9.809h7.709l-3.789-11.173-3.92 11.173zm22.339-12.696V9.38h18.095v3.115h-7.543V35h-3.22V12.495h-7.332zm29.025 9.625c0-8.19 1.622-13.02 8.587-13.02 2.303 0 6.111.399 8.645.954v2.548c-.035 0-5.052-.387-8.33-.387-4.16 0-5.682 1.675-5.682 9.975 0 5.74 1.2 9.905 5.688 9.905 3.674 0 8.324-.256 8.324-.256v2.549c-2.408.523-6.32.838-8.645.822-6.475-.016-8.587-5.402-8.587-13.09zM264.66 35l9.205-25.62h3.404L286.08 35h-3.663l-2.1-6.741h-9.721L268.412 35h-3.752zm6.97-9.809h7.709l-3.789-11.173-3.92 11.173zM297.866 35V9.38h10.999c3.508 0 6.203 1.885 6.203 7.779 0 6.566-3.244 7.178-4.345 7.402L315.966 35h-3.54l-5.075-10.255-6.265-.49V35h-3.22zm3.225-13.475h7.642c1.637 0 3.08-.136 3.08-4.366 0-4.128-1.54-4.681-3.08-4.681h-7.642v9.047zM328.326 35V9.38h9.893c7.738 0 9.042 7.366 9.042 12.915 0 6.282-2.424 12.705-9.042 12.705h-9.893zm3.22-3.152h6.568c4.226 0 5.927-4.266 5.927-9.588 0-7.317-2.23-9.818-5.927-9.818h-6.568v19.406zM12.35 60.28c-.61.34-1.252.59-1.928.75-.675.16-1.357.24-2.047.24-.83 0-1.59-.135-2.28-.405a5.332 5.332 0 0 1-1.792-1.14 5.124 5.124 0 0 1-1.178-1.763c-.28-.685-.42-1.442-.42-2.272 0-.84.147-1.602.442-2.287a5.156 5.156 0 0 1 1.223-1.755 5.651 5.651 0 0 1 1.815-1.133 6.08 6.08 0 0 1 2.235-.405c.7 0 1.372.105 2.018.315.645.21 1.222.57 1.732 1.08l-.945.99a3.62 3.62 0 0 0-1.313-.9 4.155 4.155 0 0 0-1.582-.315c-.61 0-1.175.11-1.695.33-.52.22-.972.525-1.357.915a4.14 4.14 0 0 0-.9 1.395 4.743 4.743 0 0 0-.323 1.77c0 .63.107 1.215.323 1.755.215.54.514 1.007.9 1.402a4.04 4.04 0 0 0 1.387.923c.54.22 1.135.33 1.785.33.43 0 .88-.052 1.35-.157.47-.106.9-.258 1.29-.458V56.23H8.645v-1.17h3.705v5.22zm8.87-.555c-.42.54-.88.917-1.38 1.133-.5.215-1.08.322-1.74.322-.55 0-1.045-.097-1.485-.292a3.346 3.346 0 0 1-1.117-.788c-.306-.33-.54-.72-.705-1.17a4.15 4.15 0 0 1-.248-1.44c0-.54.09-1.037.27-1.492.18-.456.43-.845.75-1.17.32-.326.7-.578 1.14-.758.44-.18.92-.27 1.44-.27.49 0 .94.082 1.35.248.41.165.762.404 1.057.72.296.315.523.7.683 1.154.16.456.24.973.24 1.553v.375h-5.67c.02.3.092.587.218.862.125.276.287.515.487.72.2.206.435.368.705.488.27.12.565.18.885.18.51 0 .94-.09 1.29-.27.35-.18.665-.445.945-.795l.885.69zm-1.005-2.865c-.02-.6-.215-1.08-.585-1.44-.37-.36-.88-.54-1.53-.54s-1.175.18-1.575.54c-.4.36-.64.84-.72 1.44h4.41zm7.085-1.89h-2.07v3.51c0 .23.005.442.015.638.01.195.05.364.12.51.07.145.175.26.315.344.14.086.34.128.6.128a2.417 2.417 0 0 0 1.035-.24l.045 1.065c-.2.09-.422.155-.668.195-.245.04-.477.06-.697.06-.42 0-.755-.055-1.005-.165a1.365 1.365 0 0 1-.585-.465c-.14-.2-.232-.447-.277-.742a6.546 6.546 0 0 1-.068-.983V54.97h-1.53v-.99h1.53v-1.995h1.17v1.995h2.07v.99zm13.6-2.4a3.033 3.033 0 0 0-1.185-.968 3.495 3.495 0 0 0-1.47-.322c-.59 0-1.132.12-1.627.36-.496.24-.923.562-1.283.968a4.44 4.44 0 0 0-.84 1.41c-.2.535-.3 1.092-.3 1.672 0 .62.1 1.197.3 1.733.2.535.477 1 .833 1.395a3.85 3.85 0 0 0 2.917 1.282c.65 0 1.23-.127 1.74-.383.51-.255.955-.622 1.335-1.102l.945.795c-.48.64-1.057 1.11-1.733 1.41-.675.3-1.437.45-2.287.45-.76 0-1.47-.14-2.13-.42a5.243 5.243 0 0 1-1.718-1.163 5.357 5.357 0 0 1-1.14-1.762 5.907 5.907 0 0 1-.412-2.235c0-.78.132-1.51.398-2.19.265-.68.637-1.27 1.117-1.77s1.05-.895 1.71-1.185a5.348 5.348 0 0 1 2.175-.435c.72 0 1.412.13 2.078.39.665.26 1.222.685 1.672 1.275l-1.095.795zm2.675 4.92c0-.55.095-1.05.285-1.5.19-.45.45-.837.78-1.163.33-.325.725-.577 1.185-.757.46-.18.96-.27 1.5-.27s1.04.09 1.5.27c.46.18.855.432 1.185.758.33.325.59.712.78 1.162.19.45.285.95.285 1.5s-.095 1.05-.285 1.5c-.19.45-.45.837-.78 1.163-.33.325-.725.577-1.185.757-.46.18-.96.27-1.5.27s-1.04-.09-1.5-.27a3.466 3.466 0 0 1-1.185-.757 3.548 3.548 0 0 1-.78-1.163 3.82 3.82 0 0 1-.285-1.5zm1.26 0c0 .37.057.712.172 1.027.116.316.283.59.503.825.22.236.482.42.788.556.305.135.647.202 1.027.202.38 0 .722-.067 1.027-.203.306-.135.568-.32.788-.554.22-.236.387-.51.502-.826.116-.315.173-.657.173-1.027 0-.37-.057-.712-.172-1.028a2.393 2.393 0 0 0-.503-.825 2.391 2.391 0 0 0-.788-.554 2.512 2.512 0 0 0-1.027-.203c-.38 0-.722.067-1.028.203-.305.135-.567.32-.787.555-.22.235-.387.51-.502.825a2.974 2.974 0 0 0-.173 1.027zm8.225-1.845c0-.32-.01-.62-.03-.9-.02-.28-.03-.535-.03-.765h1.11c0 .19.005.38.015.57.01.19.015.385.015.585h.03c.08-.17.192-.335.337-.495.146-.16.318-.302.518-.428a2.766 2.766 0 0 1 1.485-.412c.46 0 .857.07 1.193.21.335.14.612.335.832.585.22.25.382.552.488.907.105.356.157.743.157 1.163V61h-1.17v-4.215c0-.59-.13-1.055-.39-1.395-.26-.34-.665-.51-1.215-.51-.38 0-.707.065-.983.195-.275.13-.5.315-.674.555-.176.24-.305.525-.39.855-.086.33-.128.695-.128 1.095V61h-1.17v-5.355zm12.35-.675h-2.07v3.51c0 .23.005.442.015.638.01.195.05.364.12.51.07.145.175.26.315.344.14.086.34.128.6.128a2.417 2.417 0 0 0 1.035-.24l.045 1.065c-.2.09-.422.155-.668.195-.245.04-.477.06-.697.06-.42 0-.755-.055-1.005-.165a1.365 1.365 0 0 1-.585-.465c-.14-.2-.232-.447-.278-.742a6.546 6.546 0 0 1-.067-.983V54.97h-1.53v-.99h1.53v-1.995h1.17v1.995h2.07v.99zm1.61.675c0-.32-.01-.62-.03-.9-.02-.28-.03-.535-.03-.765h1.11c0 .19.005.38.015.57.01.19.015.385.015.585h.03c.08-.17.192-.335.338-.495.145-.16.317-.302.517-.428a2.766 2.766 0 0 1 1.725-.397c.08.01.16.03.24.06l-.075 1.185c-.2-.06-.41-.09-.63-.09-.72 0-1.242.232-1.568.697-.325.466-.487 1.103-.487 1.913V61h-1.17v-5.355zm4.775 1.845c0-.55.095-1.05.285-1.5.19-.45.45-.837.78-1.163.33-.325.725-.577 1.185-.757.46-.18.96-.27 1.5-.27s1.04.09 1.5.27c.46.18.855.432 1.185.758.33.325.59.712.78 1.162.19.45.285.95.285 1.5s-.095 1.05-.285 1.5c-.19.45-.45.837-.78 1.163-.33.325-.725.577-1.185.757-.46.18-.96.27-1.5.27s-1.04-.09-1.5-.27a3.466 3.466 0 0 1-1.185-.757 3.548 3.548 0 0 1-.78-1.163 3.82 3.82 0 0 1-.285-1.5zm1.26 0c0 .37.057.712.172 1.027.116.316.283.59.503.825.22.236.482.42.787.556.306.135.648.202 1.028.202s.722-.067 1.028-.203c.305-.135.567-.32.787-.554.22-.236.387-.51.502-.826.116-.315.173-.657.173-1.027 0-.37-.057-.712-.172-1.028a2.393 2.393 0 0 0-.503-.825 2.391 2.391 0 0 0-.787-.554 2.512 2.512 0 0 0-1.028-.203c-.38 0-.722.067-1.028.203-.305.135-.567.32-.787.555-.22.235-.387.51-.502.825a2.974 2.974 0 0 0-.173 1.027zm8.33-7.83h1.17V61h-1.17V49.66zm11.45 11.523c-1.137 0-2.045-.377-2.724-1.131-.679-.755-1.018-1.764-1.018-3.03 0-1.278.34-2.29 1.022-3.035.68-.745 1.605-1.117 2.772-1.117 1.167 0 2.091.372 2.772 1.117.681.745 1.022 1.752 1.022 3.021 0 1.3-.342 2.32-1.026 3.062-.683.742-1.623 1.113-2.82 1.113zm.023-1.084c1.528 0 2.292-1.03 2.292-3.09 0-2.037-.754-3.055-2.263-3.055-1.504 0-2.256 1.023-2.256 3.069 0 2.05.742 3.076 2.227 3.076zm6.516-5.129h-1.53v-.99h1.53v-1.575c0-.43.04-.822.12-1.178.08-.355.217-.662.412-.922a1.95 1.95 0 0 1 .773-.608c.32-.145.715-.217 1.185-.217.15 0 .31.015.48.045.17.03.31.075.42.135l-.165 1.05c-.28-.1-.545-.15-.795-.15-.3 0-.535.052-.705.157a.98.98 0 0 0-.383.436 1.85 1.85 0 0 0-.15.667c-.015.26-.022.54-.022.84v1.32h1.71v.99h-1.71V61h-1.17v-6.03zm11.35 1.455l-3.96-6.045h1.605l2.985 4.8 3.075-4.8h1.515l-3.96 6.045V61h-1.26v-4.575zm4.295 1.065c0-.55.095-1.05.285-1.5.19-.45.45-.837.78-1.163.33-.325.725-.577 1.185-.757.46-.18.96-.27 1.5-.27s1.04.09 1.5.27c.46.18.855.432 1.185.758.33.325.59.712.78 1.162.19.45.285.95.285 1.5s-.095 1.05-.285 1.5c-.19.45-.45.837-.78 1.163-.33.325-.725.577-1.185.757-.46.18-.96.27-1.5.27s-1.04-.09-1.5-.27a3.466 3.466 0 0 1-1.185-.757 3.548 3.548 0 0 1-.78-1.163 3.82 3.82 0 0 1-.285-1.5zm1.26 0c0 .37.057.712.172 1.027.115.316.283.59.503.825.22.236.482.42.787.556.305.135.648.202 1.028.202s.722-.067 1.027-.203c.305-.135.568-.32.788-.554.22-.236.387-.51.502-.826.115-.315.173-.657.173-1.027 0-.37-.058-.712-.173-1.028a2.393 2.393 0 0 0-.502-.825 2.391 2.391 0 0 0-.788-.554 2.512 2.512 0 0 0-1.027-.203c-.38 0-.723.067-1.028.203-.305.135-.567.32-.787.555-.22.235-.388.51-.503.825a2.974 2.974 0 0 0-.172 1.027zm14.345 1.845c0 .32.01.62.03.9.02.28.03.535.03.765h-1.11c0-.19-.005-.38-.015-.57-.01-.19-.015-.385-.015-.585h-.03c-.08.17-.193.335-.338.495-.145.16-.317.302-.517.427a2.766 2.766 0 0 1-1.485.413c-.46 0-.858-.07-1.193-.21a2.239 2.239 0 0 1-.832-.585 2.37 2.37 0 0 1-.488-.907 4.085 4.085 0 0 1-.157-1.163V53.98h1.17v4.215c0 .59.13 1.055.39 1.395.26.34.665.51 1.215.51.38 0 .707-.065.982-.195s.5-.315.675-.555c.175-.24.305-.525.39-.855.085-.33.128-.695.128-1.095v-3.42h1.17v5.355zm2.39-3.69c0-.32-.01-.62-.03-.9-.02-.28-.03-.535-.03-.765h1.11c0 .19.005.38.015.57.01.19.015.385.015.585h.03c.08-.17.192-.335.337-.495.145-.16.318-.302.518-.428a2.766 2.766 0 0 1 1.725-.397c.08.01.16.03.24.06l-.075 1.185c-.2-.06-.41-.09-.63-.09-.72 0-1.243.232-1.568.697-.325.466-.487 1.103-.487 1.913V61h-1.17v-5.355zm10-5.265h1.875l3.6 8.325h.03l3.63-8.325h1.83V61h-1.26v-8.91h-.03l-3.81 8.91h-.765l-3.81-8.91h-.03V61h-1.26V50.38zm13.16 7.11c0-.55.095-1.05.285-1.5.19-.45.45-.837.78-1.163.33-.325.725-.577 1.185-.757.46-.18.96-.27 1.5-.27s1.04.09 1.5.27c.46.18.855.432 1.185.758.33.325.59.712.78 1.162.19.45.285.95.285 1.5s-.095 1.05-.285 1.5c-.19.45-.45.837-.78 1.163-.33.325-.725.577-1.185.757-.46.18-.96.27-1.5.27s-1.04-.09-1.5-.27a3.466 3.466 0 0 1-1.185-.757 3.548 3.548 0 0 1-.78-1.163 3.82 3.82 0 0 1-.285-1.5zm1.26 0c0 .37.057.712.172 1.027.115.316.283.59.503.825.22.236.482.42.787.556.305.135.648.202 1.028.202s.722-.067 1.027-.203c.305-.135.568-.32.788-.554.22-.236.387-.51.502-.826.115-.315.173-.657.173-1.027 0-.37-.058-.712-.173-1.028a2.393 2.393 0 0 0-.502-.825 2.391 2.391 0 0 0-.788-.554 2.512 2.512 0 0 0-1.027-.203c-.38 0-.723.067-1.028.203-.305.135-.567.32-.787.555-.22.235-.388.51-.503.825a2.974 2.974 0 0 0-.172 1.027zm8.225-1.845c0-.32-.01-.62-.03-.9-.02-.28-.03-.535-.03-.765h1.11c0 .19.005.38.015.57.01.19.015.385.015.585h.03c.08-.17.192-.335.337-.495.145-.16.318-.302.518-.428a2.766 2.766 0 0 1 1.485-.412c.46 0 .857.07 1.192.21.335.14.613.335.833.585.22.25.382.552.487.907.105.356.158.743.158 1.163V61h-1.17v-4.215c0-.59-.13-1.055-.39-1.395-.26-.34-.665-.51-1.215-.51-.38 0-.708.065-.983.195s-.5.315-.675.555c-.175.24-.305.525-.39.855-.085.33-.127.695-.127 1.095V61h-1.17v-5.355zm14.78 4.08c-.42.54-.88.917-1.38 1.133-.5.215-1.08.322-1.74.322-.55 0-1.045-.097-1.485-.292a3.346 3.346 0 0 1-1.118-.788c-.305-.33-.54-.72-.705-1.17a4.15 4.15 0 0 1-.247-1.44c0-.54.09-1.037.27-1.492.18-.456.43-.845.75-1.17.32-.326.7-.578 1.14-.758.44-.18.92-.27 1.44-.27.49 0 .94.082 1.35.248.41.165.762.404 1.057.72.295.315.523.7.683 1.154.16.456.24.973.24 1.553v.375h-5.67c.02.3.092.587.217.862.125.276.288.515.488.72.2.206.435.368.705.488.27.12.565.18.885.18.51 0 .94-.09 1.29-.27.35-.18.665-.445.945-.795l.885.69zm-1.005-2.865c-.02-.6-.215-1.08-.585-1.44-.37-.36-.88-.54-1.53-.54s-1.175.18-1.575.54c-.4.36-.64.84-.72 1.44h4.41zm5.825 5.745c-.12.3-.243.572-.368.818a2.469 2.469 0 0 1-.45.63c-.175.175-.385.31-.63.404a2.475 2.475 0 0 1-.892.143c-.17 0-.348-.01-.533-.03a1.51 1.51 0 0 1-.517-.15l.15-1.02c.12.05.245.082.375.098.13.015.28.022.45.022.38 0 .66-.105.84-.315.18-.21.335-.49.465-.84l.48-1.32-2.91-7.065h1.365l2.175 5.505h.03l2.085-5.505h1.275l-3.39 8.625zm9.07-7.725c.36-.37.787-.642 1.282-.818a4.493 4.493 0 0 1 1.508-.262c1.04 0 1.79.245 2.25.735.46.49.69 1.235.69 2.235v3.015c0 .2.01.407.03.623.02.215.045.412.075.592h-1.125a2.458 2.458 0 0 1-.068-.532 20.452 20.452 0 0 1-.007-.518h-.03c-.23.36-.538.655-.923.885-.385.23-.847.345-1.387.345a3.67 3.67 0 0 1-1.013-.135 2.53 2.53 0 0 1-.825-.398 1.869 1.869 0 0 1-.773-1.553c0-.579.15-1.034.45-1.364.3-.33.673-.575 1.118-.735.445-.16.925-.26 1.44-.3.515-.04.988-.06 1.418-.06h.45v-.21c0-.51-.153-.895-.458-1.155-.305-.26-.732-.39-1.282-.39-.38 0-.753.062-1.118.188a2.683 2.683 0 0 0-.967.577l-.735-.765zm3.39 2.745c-.75 0-1.345.105-1.785.315-.44.21-.66.555-.66 1.035 0 .44.147.752.442.938.295.185.663.277 1.103.277.34 0 .637-.057.892-.172.255-.116.468-.268.638-.458.17-.19.3-.412.39-.668.09-.255.14-.527.15-.817v-.45h-1.17zm4.655-1.98c0-.32-.01-.62-.03-.9-.02-.28-.03-.535-.03-.765h1.11c0 .19.005.38.015.57.01.19.015.385.015.585h.03c.08-.17.192-.335.337-.495.145-.16.318-.302.518-.428a2.766 2.766 0 0 1 1.485-.412c.46 0 .857.07 1.192.21.335.14.613.335.833.585.22.25.382.552.487.907.105.356.158.743.158 1.163V61h-1.17v-4.215c0-.59-.13-1.055-.39-1.395-.26-.34-.665-.51-1.215-.51-.38 0-.708.065-.983.195s-.5.315-.675.555c-.175.24-.305.525-.39.855-.085.33-.127.695-.127 1.095V61h-1.17v-5.355zm14.345 4.11h-.03c-.22.4-.568.737-1.043 1.012-.475.276-1.027.413-1.657.413-.49 0-.95-.092-1.38-.277a3.366 3.366 0 0 1-1.118-.773 3.623 3.623 0 0 1-.742-1.17c-.18-.45-.27-.94-.27-1.47s.09-1.02.27-1.47c.18-.45.43-.84.75-1.17.32-.33.707-.587 1.162-.773a3.967 3.967 0 0 1 1.508-.277c.51 0 .977.105 1.402.315.425.21.798.505 1.118.885h.03v-5.34h1.17V61h-1.17v-1.245zm0-2.265c0-.37-.058-.712-.173-1.028a2.393 2.393 0 0 0-.502-.825 2.391 2.391 0 0 0-.788-.554 2.512 2.512 0 0 0-1.027-.203c-.38 0-.723.067-1.028.203-.305.135-.567.32-.787.555-.22.235-.388.51-.503.825a2.974 2.974 0 0 0-.172 1.027c0 .37.057.712.172 1.027.115.316.283.59.503.825.22.236.482.42.787.556.305.135.648.202 1.028.202s.722-.067 1.027-.203c.305-.135.568-.32.788-.554.22-.236.387-.51.502-.826.115-.315.173-.657.173-1.027zm8.05-7.11h3.24c.44 0 .87.045 1.29.135.42.09.795.237 1.125.443.33.205.597.472.802.802.205.33.308.74.308 1.23 0 .62-.168 1.132-.503 1.538-.335.405-.787.692-1.357.862v.03a2.672 2.672 0 0 1 1.717.825c.215.23.383.497.503.803.12.305.18.632.18.982 0 .59-.123 1.075-.368 1.455-.245.38-.565.682-.96.907-.395.226-.84.383-1.335.473-.495.09-.987.135-1.477.135h-3.165V50.38zm1.26 4.5h1.74c.3 0 .592-.02.877-.06.285-.04.543-.122.773-.248.23-.125.415-.3.555-.525.14-.225.21-.522.21-.892 0-.33-.065-.597-.195-.803a1.425 1.425 0 0 0-.518-.487 2.237 2.237 0 0 0-.735-.248 5.147 5.147 0 0 0-.832-.067h-1.875v3.33zm0 4.95h2.13c.31 0 .617-.032.922-.097.305-.066.58-.17.825-.316.245-.145.443-.334.593-.57.15-.235.225-.522.225-.862 0-.37-.073-.68-.218-.93a1.727 1.727 0 0 0-.57-.6 2.323 2.323 0 0 0-.81-.315 4.846 4.846 0 0 0-.937-.09h-2.16v3.78zm8.255-10.17h1.17V61h-1.17V49.66zm3.575 5.22c.36-.37.787-.642 1.282-.818a4.493 4.493 0 0 1 1.508-.262c1.04 0 1.79.245 2.25.735.46.49.69 1.235.69 2.235v3.015c0 .2.01.407.03.623.02.215.045.412.075.592h-1.125a2.458 2.458 0 0 1-.068-.532 20.452 20.452 0 0 1-.007-.518h-.03c-.23.36-.538.655-.923.885-.385.23-.847.345-1.387.345a3.67 3.67 0 0 1-1.013-.135 2.53 2.53 0 0 1-.825-.398 1.869 1.869 0 0 1-.773-1.553c0-.579.15-1.034.45-1.364.3-.33.673-.575 1.118-.735.445-.16.925-.26 1.44-.3.515-.04.988-.06 1.418-.06h.45v-.21c0-.51-.153-.895-.458-1.155-.305-.26-.732-.39-1.282-.39-.38 0-.753.062-1.118.188a2.683 2.683 0 0 0-.967.577l-.735-.765zm3.39 2.745c-.75 0-1.345.105-1.785.315-.44.21-.66.555-.66 1.035 0 .44.147.752.442.938.295.185.663.277 1.103.277.34 0 .637-.057.892-.172.255-.116.468-.268.638-.458.17-.19.3-.412.39-.668.09-.255.14-.527.15-.817v-.45h-1.17zm9.65-1.89a2.37 2.37 0 0 0-.81-.652 2.247 2.247 0 0 0-.96-.203c-.39 0-.735.067-1.035.203-.3.135-.548.322-.743.562a2.51 2.51 0 0 0-.442.832c-.1.316-.15.653-.15 1.013 0 .36.057.697.172 1.012.115.316.275.593.48.833.205.24.453.427.743.563.29.135.615.202.975.202.77 0 1.365-.29 1.785-.87l.87.825c-.34.39-.74.675-1.2.855-.46.18-.945.27-1.455.27-.54 0-1.035-.09-1.485-.27a3.212 3.212 0 0 1-1.148-.765c-.315-.33-.56-.72-.735-1.17a4.064 4.064 0 0 1-.262-1.485c0-.53.087-1.02.262-1.47.175-.45.423-.84.743-1.17a3.39 3.39 0 0 1 1.147-.773 3.813 3.813 0 0 1 1.478-.277c.52 0 1.012.09 1.477.27.465.18.873.46 1.223.84l-.93.825zm2.405-6.075h1.17v7.41l3.195-3.09h1.665l-3.39 3.195L259.679 61h-1.725l-3.48-3.69V61h-1.17V49.66zm19.66 2.91a3.033 3.033 0 0 0-1.185-.968 3.495 3.495 0 0 0-1.47-.322c-.59 0-1.133.12-1.628.36-.495.24-.922.562-1.282.968a4.44 4.44 0 0 0-.84 1.41c-.2.535-.3 1.092-.3 1.672 0 .62.1 1.197.3 1.733.2.535.477 1 .832 1.395s.78.707 1.275.937a3.85 3.85 0 0 0 1.643.345c.65 0 1.23-.127 1.74-.383.51-.255.955-.622 1.335-1.102l.945.795c-.48.64-1.058 1.11-1.733 1.41-.675.3-1.437.45-2.287.45-.76 0-1.47-.14-2.13-.42a5.243 5.243 0 0 1-1.718-1.163 5.357 5.357 0 0 1-1.14-1.762 5.907 5.907 0 0 1-.412-2.235c0-.78.132-1.51.397-2.19.265-.68.638-1.27 1.118-1.77.48-.5 1.05-.895 1.71-1.185a5.348 5.348 0 0 1 2.175-.435c.72 0 1.412.13 2.077.39s1.223.685 1.673 1.275l-1.095.795zm2.99 2.31c.36-.37.787-.642 1.282-.818a4.493 4.493 0 0 1 1.508-.262c1.04 0 1.79.245 2.25.735.46.49.69 1.235.69 2.235v3.015c0 .2.01.407.03.623.02.215.045.412.075.592h-1.125a2.458 2.458 0 0 1-.068-.532 20.452 20.452 0 0 1-.007-.518h-.03c-.23.36-.538.655-.923.885-.385.23-.847.345-1.387.345a3.67 3.67 0 0 1-1.013-.135 2.53 2.53 0 0 1-.825-.398 1.869 1.869 0 0 1-.772-1.553c0-.579.15-1.034.45-1.364.3-.33.672-.575 1.117-.735.445-.16.925-.26 1.44-.3.515-.04.988-.06 1.418-.06h.45v-.21c0-.51-.153-.895-.458-1.155-.305-.26-.732-.39-1.282-.39-.38 0-.753.062-1.118.188a2.683 2.683 0 0 0-.967.577l-.735-.765zm3.39 2.745c-.75 0-1.345.105-1.785.315-.44.21-.66.555-.66 1.035 0 .44.147.752.442.938.295.185.663.277 1.103.277.34 0 .637-.057.892-.172.255-.116.468-.268.638-.458.17-.19.3-.412.39-.668.09-.255.14-.527.15-.817v-.45h-1.17zm8.495-2.655h-2.07v3.51c0 .23.005.442.015.638.01.195.05.364.12.51.07.145.175.26.315.344.14.086.34.128.6.128a2.417 2.417 0 0 0 1.035-.24l.045 1.065c-.2.09-.423.155-.668.195-.245.04-.477.06-.697.06-.42 0-.755-.055-1.005-.165a1.365 1.365 0 0 1-.585-.465c-.14-.2-.233-.447-.278-.742a6.546 6.546 0 0 1-.067-.983V54.97h-1.53v-.99h1.53v-1.995h1.17v1.995h2.07v.99zm6.55 0h-1.53v-.99h1.53v-1.575c0-.43.04-.822.12-1.178.08-.355.217-.662.412-.922a1.95 1.95 0 0 1 .773-.608c.32-.145.715-.217 1.185-.217.15 0 .31.015.48.045.17.03.31.075.42.135l-.165 1.05c-.28-.1-.545-.15-.795-.15-.3 0-.535.052-.705.157a.98.98 0 0 0-.383.436 1.85 1.85 0 0 0-.15.667c-.015.26-.022.54-.022.84v1.32h1.71v.99h-1.71V61h-1.17v-6.03zm3.89 2.52c0-.55.095-1.05.285-1.5.19-.45.45-.837.78-1.163.33-.325.725-.577 1.185-.757.46-.18.96-.27 1.5-.27s1.04.09 1.5.27c.46.18.855.432 1.185.758.33.325.59.712.78 1.162.19.45.285.95.285 1.5s-.095 1.05-.285 1.5c-.19.45-.45.837-.78 1.163-.33.325-.725.577-1.185.757-.46.18-.96.27-1.5.27s-1.04-.09-1.5-.27a3.466 3.466 0 0 1-1.185-.757 3.548 3.548 0 0 1-.78-1.163 3.82 3.82 0 0 1-.285-1.5zm1.26 0c0 .37.057.712.172 1.027.115.316.283.59.503.825.22.236.482.42.787.556.305.135.648.202 1.028.202s.722-.067 1.027-.203c.305-.135.568-.32.788-.554.22-.236.387-.51.502-.826.115-.315.173-.657.173-1.027 0-.37-.058-.712-.173-1.028a2.393 2.393 0 0 0-.502-.825 2.391 2.391 0 0 0-.788-.554 2.512 2.512 0 0 0-1.027-.203c-.38 0-.723.067-1.028.203-.305.135-.567.32-.787.555-.22.235-.388.51-.503.825a2.974 2.974 0 0 0-.172 1.027zm8.225-1.845c0-.32-.01-.62-.03-.9-.02-.28-.03-.535-.03-.765h1.11c0 .19.005.38.015.57.01.19.015.385.015.585h.03c.08-.17.192-.335.337-.495.145-.16.318-.302.518-.428a2.766 2.766 0 0 1 1.725-.397c.08.01.16.03.24.06l-.075 1.185c-.2-.06-.41-.09-.63-.09-.72 0-1.243.232-1.568.697-.325.466-.487 1.103-.487 1.913V61h-1.17v-5.355zm10-5.265h1.26v9.45h4.86V61h-6.12V50.38zm13.58 8.955c0 .32.01.62.03.9.02.28.03.535.03.765h-1.11c0-.19-.005-.38-.015-.57-.01-.19-.015-.385-.015-.585h-.03c-.08.17-.193.335-.338.495-.145.16-.317.302-.517.427a2.766 2.766 0 0 1-1.485.413c-.46 0-.858-.07-1.193-.21a2.239 2.239 0 0 1-.832-.585 2.37 2.37 0 0 1-.488-.907 4.085 4.085 0 0 1-.157-1.163V53.98h1.17v4.215c0 .59.13 1.055.39 1.395.26.34.665.51 1.215.51.38 0 .707-.065.982-.195s.5-.315.675-.555c.175-.24.305-.525.39-.855.085-.33.128-.695.128-1.095v-3.42h1.17v5.355zm7.385-3.6a2.37 2.37 0 0 0-.81-.652 2.247 2.247 0 0 0-.96-.203c-.39 0-.735.067-1.035.203-.3.135-.548.322-.743.562a2.51 2.51 0 0 0-.442.832c-.1.316-.15.653-.15 1.013 0 .36.057.697.172 1.012.115.316.275.593.48.833.205.24.453.427.743.563.29.135.615.202.975.202.77 0 1.365-.29 1.785-.87l.87.825c-.34.39-.74.675-1.2.855-.46.18-.945.27-1.455.27-.54 0-1.035-.09-1.485-.27a3.212 3.212 0 0 1-1.148-.765c-.315-.33-.56-.72-.735-1.17a4.064 4.064 0 0 1-.262-1.485c0-.53.087-1.02.262-1.47.175-.45.423-.84.743-1.17a3.39 3.39 0 0 1 1.147-.773 3.813 3.813 0 0 1 1.478-.277c.52 0 1.012.09 1.477.27.465.18.873.46 1.223.84l-.93.825zm2.405-6.075h1.17v7.41l3.195-3.09h1.665l-3.39 3.195L347.509 61h-1.725l-3.48-3.69V61h-1.17V49.66z"/>
    </g>
</svg>
