<svg xmlns="http://www.w3.org/2000/svg" width="160" height="12" viewBox="0 0 160 12">
    <path fill="#000" fill-rule="evenodd" d="M0 11.903V.13h4.673c2.399 0 3.163 1.66 3.163 3.08 0 1.161-.376 2.266-1.532 2.582.79.165 1.631 1.04 1.631 2.783 0 1.79-.745 3.33-3.25 3.33H0zm1.51-1.407H4.66c.756 0 1.778-.24 1.778-1.974 0-1.101-.522-2.088-1.778-2.088H1.51v4.062zm0-5.445h3.127c1.11 0 1.713-.603 1.713-1.791 0-1.433-.94-1.724-1.713-1.724H1.51v3.515zm12.395 4.753V.13h1.496v9.506c0 .853.537.837 1.009.837h4.731v1.431H16.19c-1.134 0-2.285-.281-2.285-2.099zm12.625 2.1L30.807.128h1.581l4.094 11.774H34.78l-.976-3.098h-4.516l-1.015 3.098H26.53zm3.239-4.509h3.581L31.59 2.26l-1.821 5.135zm11.437-1.411c0-3.764.754-5.984 3.99-5.984 1.07 0 2.84.183 4.016.438V1.61c-.016 0-2.347-.177-3.87-.177-1.932 0-2.64.77-2.64 4.584 0 2.638.558 4.552 2.643 4.552 1.707 0 3.867-.117 3.867-.117v1.17c-1.118.241-2.936.386-4.016.379-3.008-.007-3.99-2.483-3.99-6.016zm13.928 5.92V.128h1.471v5.18h1.231L61.38.128h1.788l-3.974 5.878 3.974 5.896h-1.788l-3.543-5.187h-1.214v5.187h-1.488zm12.598-5.92c0-3.764.754-5.984 3.99-5.984 1.07 0 2.84.183 4.016.438V1.61c-.016 0-2.347-.177-3.87-.177-1.932 0-2.64.77-2.64 4.584 0 2.638.558 4.552 2.643 4.552 1.707 0 3.867-.117 3.867-.117v1.17c-1.118.241-2.936.386-4.016.379-3.008-.007-3.99-2.483-3.99-6.016zm13.395 5.92L85.404.128h1.581l4.094 11.774h-1.702l-.975-3.098h-4.517l-1.015 3.098h-1.743zm3.239-4.509h3.581l-1.76-5.135-1.821 5.135zM94.744 1.56V.13h8.407V1.56h-3.504v10.343H98.15V1.56h-3.407zm13.485 4.424c0-3.764.754-5.984 3.99-5.984 1.07 0 2.839.183 4.016.438V1.61c-.016 0-2.347-.177-3.87-.177-1.933 0-2.64.77-2.64 4.584 0 2.638.558 4.552 2.642 4.552 1.708 0 3.868-.117 3.868-.117v1.17c-1.119.241-2.937.386-4.016.379-3.009-.007-3.99-2.483-3.99-6.016zm13.395 5.92L125.9.128h1.582l4.093 11.774h-1.701l-.976-3.098h-4.516l-1.015 3.098h-1.743zm3.238-4.509h3.582l-1.76-5.135-1.822 5.135zm12.19 4.508V.13h5.11c1.63 0 2.881.866 2.881 3.575 0 3.017-1.507 3.299-2.018 3.402l2.435 4.797h-1.644l-2.358-4.713-2.91-.225v4.938h-1.497zm1.498-6.193h3.55c.76 0 1.431-.062 1.431-2.006 0-1.898-.715-2.152-1.43-2.152h-3.551V5.71zm12.653 6.193V.13h4.596c3.595 0 4.201 3.385 4.201 5.935 0 2.888-1.126 5.84-4.201 5.84h-4.596zm1.496-1.448h3.051c1.964 0 2.754-1.961 2.754-4.407 0-3.363-1.036-4.512-2.754-4.512H152.7v8.919z"/>
</svg>
