<?xml version="1.0" encoding="utf-8"?>
<!-- Generator: Adobe Illustrator 22.0.1, SVG Export Plug-In . SVG Version: 6.00 Build 0)  -->
<svg version="1.1" id="Слой_1" xmlns="http://www.w3.org/2000/svg" xmlns:xlink="http://www.w3.org/1999/xlink" x="0px" y="0px"
	 viewBox="0 0 168 187.9" style="enable-background:new 0 0 168 187.9;" xml:space="preserve">
<style type="text/css">
	.st0{fill:#97CCEF;}
	.st1{opacity:0.5;fill:#97CCEF;}
	.st2{fill:#E5E6E7;}
	.st3{fill:#0D9DDB;}
	.st4{opacity:0.5;fill:#E5E6E7;}
	.st5{fill:#FFFFFF;}
	.st6{fill:#D7ECF9;}
	.st7{fill:#F05238;}
	.st8{fill:#053849;}
	.st9{opacity:0.5;fill:#053849;}
	.st10{opacity:0.5;fill:#FFFFFF;}
	.st11{fill:#A7DBF1;}
	.st12{opacity:0.5;fill:#7BC9EB;}
</style>
<g>
	<g>
		<path class="st0" d="M138.5,80.4c0,0,3.6-7.1,6.5-10.2c2.9-3.1,5.8,2.5,4.4,5.2c0,0,3.9-3.8,7-4.7c10.8-3.1,17.6,13.4,4.3,19.6
			c-10.2,4.4-14.7,6-14.7,6L138.5,80.4z"/>
	</g>
	<path class="st1" d="M140.6,84.9c0.4-2.9,0.8-5.2,0.8-5.2s7.6,10.6,9.4,10.2c8.6-1.3,15.3-7.9,17.2-10c0.1,3.9-2,8-7.3,10.5
		c-10.2,4.4-14.7,6-14.7,6L140.6,84.9z"/>
	<g>
		<path class="st0" d="M35,106.9c0,0-1.6,8.2-3.4,12.1c-1.8,3.8-6.3-0.5-5.9-3.5c0,0-2,4.5-4.6,6.3c-9.3,6.4-20.9-7.1-10.4-17.2
			c8.2-7.4,12-10.4,12-10.4L35,106.9z"/>
	</g>
	<path class="st1" d="M31.6,119c-1.6,3.4-5.2,0.5-5.8-2.3c0.6,0.9,2.1,1.1,3.3-0.1c1.2-1.2,1.3-10.8,1.3-10.8c0.3-0.5,2.2,0,4.1,0.6
		l0.6,0.6C35,106.9,33.4,115.2,31.6,119z"/>
	<g>
		<path class="st0" d="M140.9,41.1c0,0,8-0.9,10.1,4.3c2.1,5.2-4.4,28.8-10,29.2c-3.8,0.1-8.4-2.2-8.4-2.2L140.9,41.1z"/>
	</g>
	<g>
		<path class="st0" d="M59.3,19.5c0,0-6.6-4.7-10.9-1.3c-4.4,3.5-10.4,27.2-5.7,30.4c3.2,1.9,8.4,2.2,8.4,2.2L59.3,19.5z"/>
	</g>
	<path class="st1" d="M46.4,42.7c0.2-9.8,6.4-20.9,9-25.1c2.2,0.7,3.9,1.9,3.9,1.9L51,50.8c0,0-5.1-0.3-8.4-2.2
		c-1.1-0.8-1.6-2.7-1.7-5.2C43.5,44.1,46.3,44.4,46.4,42.7z"/>
	<path class="st1" d="M140.7,67.6c4.7-8.6,4.7-21.4,4.6-26.3c-2.3-0.4-4.3-0.2-4.3-0.2l-8.3,31.3c0,0,4.6,2.3,8.4,2.2
		c1.3-0.1,2.7-1.5,4.1-3.7C142.4,70.3,139.9,69.1,140.7,67.6z"/>
	<g>
		<path class="st2" d="M98.3,42.9L98.3,42.9c23.5,6.2,37.5,30.3,31.3,53.8l-10.2,38.5c-2.5,9.4-12.2,15.1-21.6,12.6l-50.9-13.4
			c-9.4-2.5-15.1-12.2-12.6-21.6l10.2-38.5C50.7,50.7,74.8,36.7,98.3,42.9z"/>
		<g>
			<path class="st3" d="M44.2,75.1c13.6,11.3,19.4,29.5,14.9,46.6l-3.9,14.7l-8.3-2.2c-9.4-2.5-15.1-12.2-12.6-21.6L44.2,75.1
				L44.2,75.1z"/>
			<path class="st3" d="M129.3,97.6L129.3,97.6l-9.9,37.5c-2.5,9.4-12.2,15.1-21.6,12.6l-8.3-2.2l3.9-14.7
				C97.9,113.7,111.9,100.7,129.3,97.6z"/>
		</g>
		<path class="st4" d="M65.3,47.1c-5.4,5.3-9.5,12.2-11.6,20.1l-10.2,38.5c-2.5,9.4,3.1,19.1,12.6,21.6l50.9,13.4
			c3.4,0.9,6.8,0.7,10-0.3c-4.1,6.1-11.7,9.2-19.2,7.2l-50.9-13.4c-9.4-2.5-15.1-12.2-12.6-21.6l10.2-38.5
			C47.7,62.2,55.4,52.8,65.3,47.1z"/>
	</g>
	<g>
		<path class="st5" d="M35,106.9L22.8,94.2c15.4-14.7,29.1-18.1,38.7-17.9c0.2-0.7,0.4-1.1,0.4-1.1s6.9-7.3,26.8-2
			c19,5,22.1,14,22.3,14.9c7-0.6,16.4-2.5,27.4-7.8l7.6,15.9c-15.6,7.4-29.1,9.4-38.5,9.6c-1.4,6.8-3.1,14.2-4.5,19.7
			c-1.3,4.9-3.4,9.2-6.6,12.3c2.1,7.8,4.7,20,4.6,32l-19.8-0.1c0-9-2.2-19.4-4.2-26.6c-2-0.2-4.2-0.6-6.4-1.3
			c-2.6-0.7-4.8-1.5-6.9-2.4c-5.3,5.3-12.4,13.3-16.9,21.1L29.6,151c6.1-10.8,14.8-20.4,20.4-26.1c-1-4.1-0.7-8.6,0.5-13.2
			c1.3-4.9,3.2-11.2,5.1-17.2C50.2,95.8,43.2,99.1,35,106.9z"/>
	</g>
	<g>
		<path class="st5" d="M52.7,26.8c15.6-37,54.9-24.9,54.9-24.9s40.2,8.9,35.4,48.7c-4.8,39.9-41.2,37.6-57.1,33.4
			C69.9,79.8,37.1,63.8,52.7,26.8z"/>
	</g>
	<path class="st2" d="M52.7,26.8C56.6,17.5,62,11.3,68,7.2c-4.6,4-8.7,9.4-11.8,16.9c-15.6,37,17.2,53,33.2,57.3
		c10.1,2.7,28.4,4.5,41.6-4.5C117.6,88.9,96.9,86.9,85.9,84C69.9,79.8,37.1,63.8,52.7,26.8z"/>
	<g>
		<g>
			<path class="st0" d="M73.7,130.3c17.1,4.5,28.4,2.5,28.8,2.4c2.4-0.5,4-2.8,3.5-5.1c-0.4-2.4-2.7-4-5.1-3.5c-0.2,0-10,1.7-25-2.3
				c-15-4-22.3-10.1-22.3-10.2c-1.8-1.6-4.6-1.4-6.2,0.4c-1.6,1.8-1.4,4.6,0.4,6.2C48.2,118.5,56.5,125.7,73.7,130.3z"/>
		</g>
	</g>
	<path class="st1" d="M48.4,115.8c0.3,0.3,8.7,7.5,25.9,12.1c17.1,4.5,28.4,2.5,28.8,2.4c1.3-0.2,2.3-1,2.9-2.1
		c0.1,2.1-1.4,4-3.6,4.4c-0.5,0.1-11.7,2.1-28.8-2.4c-17.2-4.5-25.5-11.8-25.9-12.1c-1.6-1.4-1.9-3.8-0.8-5.6
		C47,113.8,47.5,115,48.4,115.8z"/>
	<g>
		<g>
			<path class="st0" d="M84.4,89.9c14.9,3.9,26.6,1.4,27.4,1.2c1.6-0.4,2.6-1.9,2.2-3.5c-0.4-1.6-1.9-2.6-3.5-2.2
				c-0.4,0.1-24.8,5.2-46.7-12.4c-1.3-1-3.1-0.8-4.1,0.4c-1,1.3-0.8,3.1,0.4,4.1C68.3,84.2,76.7,87.9,84.4,89.9z"/>
		</g>
	</g>
	<path class="st1" d="M111.5,88.5c-0.4,0.1-26.4,4.8-50.2-13.4c-0.7-0.5-1.4-0.7-2.2-0.7c0.1-0.4,0.3-0.7,0.5-1
		c1-1.3,2.9-1.5,4.1-0.4c21.9,17.6,46.3,12.5,46.7,12.4c1.6-0.4,3.1,0.6,3.5,2.2c0.1,0.4,0.1,0.9,0,1.3
		C113.2,88.5,112.4,88.3,111.5,88.5z"/>
	<g>
		<g>
			<path class="st6" d="M74.9,89.2l5.6,2.1c2.1,0.8,4.3,1.4,6.5,1.7l6.4,1c1.6,0.3,2.6,1.8,2.2,3.4l-2.5,9.3c-0.4,1.4-1.7,2.2-3.1,2
				l-6.7-1.1c-2.2-0.3-4.4-0.9-6.5-1.7l-6.4-2.4c-1.3-0.5-2-1.9-1.7-3.3l2.5-9.3C71.7,89.5,73.3,88.6,74.9,89.2z"/>
		</g>
		<g>
			<path class="st7" d="M88.7,98c-0.3,1.2,0.4,2.3,1.5,2.7c1.2,0.3,2.3-0.4,2.7-1.5c0.3-1.2-0.4-2.3-1.5-2.7
				C90.2,96.1,89,96.8,88.7,98z"/>
		</g>
		<g>
			<path class="st7" d="M87.2,103.8c-0.3,1.2,0.4,2.3,1.5,2.7c1.2,0.3,2.3-0.4,2.7-1.5c0.3-1.2-0.4-2.3-1.5-2.7
				C88.7,101.9,87.5,102.6,87.2,103.8z"/>
		</g>
		<g>
			<g>
				<path class="st0" d="M80.4,97.9c2.9,0.8,5.1,1,5.3,1c0.7,0.1,1.4-0.5,1.4-1.2c0.1-0.7-0.5-1.3-1.2-1.4c-0.1,0-6.1-0.6-11.4-3.4
					c-0.6-0.3-1.4-0.1-1.8,0.6c-0.3,0.6-0.1,1.4,0.6,1.8C75.7,96.5,78.2,97.4,80.4,97.9z"/>
			</g>
		</g>
		<g>
			<g>
				<path class="st0" d="M78.9,103.3c2.9,0.8,5.1,1,5.3,1c0.7,0.1,1.4-0.5,1.4-1.2c0.1-0.7-0.4-1.3-1.2-1.4c-0.1,0-6.1-0.6-11.4-3.4
					c-0.6-0.3-1.4-0.1-1.8,0.6c-0.3,0.6-0.1,1.4,0.6,1.8C74.3,101.9,76.8,102.7,78.9,103.3z"/>
			</g>
		</g>
	</g>
	<path class="st0" d="M62.9,108.1l2.6-2c0.5-0.4,1.1-0.5,1.7-0.3l3,1.2c0.6,0.2,1,0.8,1.1,1.4l0.5,3.2c0.1,0.6-0.2,1.2-0.6,1.6
		l-2.6,2c-0.5,0.4-1.1,0.5-1.7,0.3l-3-1.2c-0.6-0.2-1-0.8-1.1-1.4l-0.5-3.2C62.2,109.1,62.4,108.5,62.9,108.1z"/>
	<path class="st0" d="M93.9,116.3l-1.2-3c-0.2-0.6-0.8-1-1.4-1.1l-3.2-0.4c-0.6-0.1-1.2,0.2-1.6,0.7l-2,2.6
		c-0.4,0.5-0.5,1.2-0.2,1.7l1.2,3c0.2,0.6,0.8,1,1.4,1.1l3.2,0.4c0.6,0.1,1.2-0.2,1.6-0.7l2-2.6C94.1,117.5,94.2,116.9,93.9,116.3z"
		/>
	<g>
		<g>
			<path class="st8" d="M58.7,34.3c11.9-26.8,44.8-16.8,44.8-16.8S137,25,134.1,54.2c-2.9,29.2-33.1,26.5-46.4,23
				C74.4,73.7,46.8,61,58.7,34.3z"/>
		</g>
		<path class="st9" d="M58.7,34.3c3.2-7.1,7.8-11.6,12.9-14.4c-2.7,2.6-5,5.8-6.9,10c-11.9,26.8,15.7,39.4,29,42.9
			c8.1,2.1,22.5,4,33.2-1.6c-10.5,10.6-29.4,8.5-39.2,5.9C74.4,73.7,46.8,61,58.7,34.3z"/>
		<g>
			<path class="st10" d="M103.5,17.5c0,0,1.7,0.4,4.4,1.3c1.1,11.4,4.9,32.8,18.4,53c-3.7,3.5-8.4,5.5-13.3,6.5
				C96.7,53.2,93.5,27.1,92.9,15.7C99.1,16.1,103.5,17.5,103.5,17.5z"/>
			<path class="st10" d="M81.6,16.4c0.7,11.5,4.5,38.7,22.8,62.9c-3.3,0-6.6-0.2-9.5-0.6C79.1,55.3,75.2,30.8,74.3,18.5
				C76.7,17.5,79.2,16.8,81.6,16.4z"/>
		</g>
	</g>
	<g>
		<path class="st8" d="M52.3,129.7c3.7,1,8-0.5,10.9-2.8c4.6-3.7,6.9-10.2,6-16.6c-0.2-1.2-1.3-2-2.5-1.9c-1.2,0.2-2,1.3-1.9,2.5
			c0.7,4.9-1,9.8-4.4,12.6c-2.2,1.8-6,2.9-8.1,1.5c-0.9-0.6-1.3-1.5-1.4-2.1c-0.2-1.2,0.1-2.5,0.9-3.4c0.5-0.7,1.3-1.3,2.2-1.9
			c1.7-1.3,3.9-2.8,4.4-5.6c0.4-1.8,0-3.7-1.1-5.2c-1.2-1.7-3-2.8-5-3c-1.2-0.2-2.3,0.7-2.5,1.9c-0.2,1.2,0.7,2.3,1.9,2.5
			c0.8,0.1,1.6,0.6,2,1.2c0.3,0.4,0.6,1,0.4,1.8c-0.2,1.1-1.2,1.8-2.7,3c-1.1,0.8-2.2,1.6-3.1,2.8c-1.5,1.9-2.1,4.5-1.7,6.9
			c0.4,2.1,1.5,4,3.3,5.1C50.7,129.2,51.5,129.5,52.3,129.7z"/>
	</g>
	<g>
		<path class="st8" d="M92.5,140.4c0.8,0.2,1.7,0.3,2.6,0.3c2.1-0.1,4-1.1,5.4-2.8c1.5-1.9,2.2-4.4,1.9-6.8
			c-0.2-1.4-0.8-2.7-1.3-3.9c-0.8-1.8-1.2-2.9-0.9-3.9c0.3-0.8,0.8-1.2,1.2-1.4c0.7-0.3,1.6-0.3,2.4,0c1.1,0.5,2.4-0.1,2.9-1.2
			c0.5-1.1-0.1-2.4-1.2-2.9c-1.9-0.8-4-0.7-5.9,0.1c-1.7,0.8-3,2.2-3.5,4c-0.9,2.7,0.2,5.2,1.1,7.1c0.4,1,0.9,1.9,1,2.7
			c0.2,1.2-0.2,2.5-0.9,3.4c-0.4,0.5-1.1,1.1-2.2,1.2c-2.6,0.1-5.3-2.6-6.3-5.3c-1.6-4-0.7-9.2,2.4-13.1c0.7-1,0.6-2.3-0.4-3.1
			c-1-0.7-2.3-0.6-3.1,0.4c-4,5.1-5.1,12-3,17.4C85.7,136,88.8,139.4,92.5,140.4z"/>
	</g>
	<path class="st2" d="M32.7,100.3c0,0,12.5-12.7,25.6-13.2l-2.7,7.5c-5.4,1.2-12.4,4.6-20.6,12.4l-2-2.1L32.7,100.3z"/>
	<g>
		<g>
			<path class="st11" d="M34.2,109.8c1,0.3,2,0,2.8-0.7c1.2-1.1,1.2-3,0.1-4.1L24.9,92.2c-1.1-1.2-3-1.2-4.1-0.1
				c-1.2,1.1-1.2,3-0.1,4.1L32.9,109C33.3,109.4,33.7,109.7,34.2,109.8z"/>
		</g>
	</g>
	<path class="st1" d="M6.7,114.5c9.5,11.7,19,1,19,1s-2,4.5-4.6,6.3C14.9,126.2,7.5,121.3,6.7,114.5z"/>
	<path class="st0" d="M34.5,84.9c6.6-4.3,12.7-6.6,18.1-7.7c-0.1,2.6-0.8,7.8-5.4,9.8C42.4,89.2,37.1,88.2,34.5,84.9z"/>
	<path class="st0" d="M134.9,100.9c-7.4,2.5-14,3.9-19.8,4.5c0.3-1.9,1.7-8.3,7.3-9.7C127.9,94.4,133.1,96.8,134.9,100.9z"/>
	<path class="st2" d="M108.2,98.9c0,0,20.7-1.8,33.3-7.9c0.5-0.3,1.1-0.5,1.6-0.7l2.9,6c-15.6,7.4-29.1,9.4-38.5,9.6
		C107.5,105.9,108.2,103.7,108.2,98.9z"/>
	<g>
		<g>
			<path class="st11" d="M145.3,99.2c0.6,0.2,1.4,0.1,2-0.2c1.5-0.7,2.1-2.4,1.4-3.9l-7.6-15.9c-0.7-1.5-2.4-2.1-3.9-1.4
				c-1.5,0.7-2.1,2.4-1.4,3.9l7.6,15.9C143.7,98.4,144.5,99,145.3,99.2z"/>
		</g>
	</g>
	<path class="st2" d="M49.8,149.5c1.4-0.8,12.3-12.3,12.9-13.4c0.6-1.1,1.6-0.5,3.2,0.8c1.6,1.4,9.6,4.3,11.8,3.1
		c2.2-1.2,2.4-0.4,2.6,0c0.2,0.4,4.7,19.8,4.7,19.8s-1.9,0-4.6-0.1c-0.8-6-2.2-12-3.5-16.6c-2-0.2-4.2-0.6-6.4-1.3
		c-2.6-0.7-4.8-1.5-6.9-2.4c-3.6,3.6-8,8.4-11.8,13.6C50.3,151.4,49.2,149.8,49.8,149.5z"/>
	<g>
		<path class="st0" d="M100.5,157.1c0.1,1.2,0.7,9.9,0.7,9.9s10.6-6.1,19.4-1.1c8.8,5.1,6.9,17.2,6.9,17.2l-45.8,4.8l-1.5-29.5
			L100.5,157.1z"/>
	</g>
	<g>
		<path class="st0" d="M36.3,140.1c-0.7,1-5.4,8.3-5.4,8.3s-6.2-10.5-16.4-10.5C4.3,138,0,149.4,0,149.4l37.5,26.8l15.8-24.9
			L36.3,140.1z"/>
	</g>
	<g>
		<path class="st8" d="M37.5,176.2L0,149.4c0,0,0.9-2.3,2.7-4.8l37.6,27.1L37.5,176.2z"/>
	</g>
	<g>
		<path class="st8" d="M127.5,183.1l-45.8,4.8l-0.3-5.7l45.9-5.9C128,180,127.5,183.1,127.5,183.1z"/>
	</g>
	<g>
		<path class="st11" d="M52.5,154.1c1.2,0.3,2.5-0.1,3.2-1.2c0.9-1.4,0.5-3.2-0.8-4.1l-17-11.2c-1.4-0.9-3.2-0.5-4.1,0.8
			c-0.9,1.4-0.5,3.2,0.8,4.1l17,11.2C51.9,153.9,52.2,154,52.5,154.1z"/>
	</g>
	<path class="st12" d="M33.8,140.4l17,11.2c0.3,0.2,0.6,0.3,0.9,0.4c1.2,0.3,2.5-0.1,3.2-1.2c0.3-0.5,0.5-1,0.5-1.6
		c1,1,1.2,2.5,0.4,3.7c-0.7,1.1-2,1.5-3.2,1.2c-0.3-0.1-0.6-0.2-0.9-0.4l-17-11.2c-0.9-0.6-1.3-1.5-1.3-2.5
		C33.5,140.2,33.6,140.3,33.8,140.4z"/>
	<g>
		<path class="st11" d="M79.5,161.3c0.3,0.1,0.6,0.1,0.9,0.1l20.3-1.3c1.6-0.1,2.8-1.5,2.7-3.1c-0.1-1.6-1.5-2.8-3.1-2.7l-20.3,1.3
			c-1.6,0.1-2.8,1.5-2.7,3.1C77.4,159.9,78.3,161,79.5,161.3z"/>
	</g>
	<path class="st12" d="M79,155.8c-0.3,0.5-0.4,1-0.4,1.6c0.1,1.3,1,2.3,2.2,2.6c0.3,0.1,0.6,0.1,0.9,0.1l20.3-1.3
		c0.4,0,0.7-0.1,1-0.3c-0.5,0.9-1.3,1.5-2.4,1.5l-20.3,1.3c-0.3,0-0.6,0-0.9-0.1c-1.2-0.3-2.1-1.4-2.2-2.6
		C77.2,157.4,77.9,156.3,79,155.8z"/>
	<path class="st8" d="M29.5,164.9l4.8-4c2.4-2,5.7-2.3,8.4-0.9l3.8,2l-0.8,1.2l-3.7-1.9c-2.2-1.2-4.9-0.9-6.8,0.7l-4.8,4l-3.1,2.9
		l-1.2-0.9L29.5,164.9z"/>
	<path class="st8" d="M84.5,171.1c3.1,0.1,5.8,2.1,6.9,4.9l2.2,5.9l1.4,4.6l-1.5,0.2l-1.3-4.3l-2.2-5.9c-0.9-2.3-3.1-3.9-5.5-4
		l-3.5-0.1l-0.1-1.5L84.5,171.1z"/>
</g>
</svg>
