<?xml version="1.0" encoding="utf-8"?>
<!-- Generator: Adobe Illustrator 22.0.1, SVG Export Plug-In . SVG Version: 6.00 Build 0)  -->
<svg version="1.1" id="Слой_1" xmlns="http://www.w3.org/2000/svg" xmlns:xlink="http://www.w3.org/1999/xlink" x="0px" y="0px"
	 viewBox="0 0 300 99.2" style="enable-background:new 0 0 300 99.2;" xml:space="preserve">
<style type="text/css">
	.st0{fill:#009CDB;}
	.st1{fill:#FFFFFF;}
</style>
<path id="XMLID_366_" class="st0" d="M48.8,70.4C66,70.4,80,56.4,80,39.1c0-5.8-1.6-11.1-4.3-15.8l2.4-2.4l1.5,1.5l7.2-7.2L71.2,0
	l-7.1,7.1l1.6,1.5L63,11.3c-4.3-2.2-9.1-3.5-14.3-3.5c-17.3,0-31.3,14-31.3,31.3C17.5,56.4,31.5,70.4,48.8,70.4z M48.8,25.3
	c7.6,0,13.8,6.2,13.8,13.8c0,7.6-6.2,13.8-13.8,13.8c-7.6,0-13.8-6.2-13.8-13.8C35,31.5,41.1,25.3,48.8,25.3z"/>
<path id="XMLID_365_" class="st0" d="M48.8,81.7c-15.3,0-28.7-8.1-36.2-20.1L0,74.1c10.9,15.2,28.7,25.1,48.8,25.1
	c5.8,0,11.5-0.9,16.8-2.4l3.8-1.2c11.4-4.2,21.1-11.7,28.1-21.4L84.9,61.5C77.4,73.6,64,81.7,48.8,81.7z"/>
<g id="XMLID_336_">
	<path id="XMLID_362_" class="st1" d="M118.3,56.8c-0.1-0.3-0.4-0.5-0.7-0.5h-0.1c-0.3,0-0.6,0.2-0.7,0.5l-3.1,7.3
		c0,0.1-0.1,0.2-0.1,0.3c0,0.1,0,0.2,0.1,0.3c0.1,0.1,0.2,0.2,0.5,0.2c0.2,0,0.4-0.1,0.5-0.3l0.8-1.9h4.1l0.8,1.9
		c0.1,0.2,0.3,0.3,0.5,0.3c0.2,0,0.4-0.1,0.5-0.2c0.1-0.1,0.1-0.2,0.1-0.3c0-0.1,0-0.2-0.1-0.3L118.3,56.8z M115.8,61.7l1.6-4l1.6,4
		H115.8z"/>
	<path id="XMLID_359_" class="st1" d="M129,57.7c-0.8-0.9-1.9-1.4-3.2-1.4h-2.4c-0.1,0-0.3,0.1-0.4,0.2c-0.1,0.1-0.2,0.2-0.2,0.4
		v7.4c0,0.1,0.1,0.3,0.2,0.4c0.1,0.1,0.2,0.2,0.4,0.2h2.4c1.4,0,2.4-0.5,3.2-1.4c0.4-0.4,0.6-0.8,0.8-1.3c0.2-0.5,0.3-1,0.3-1.5
		c0-0.5-0.1-1-0.3-1.5C129.6,58.6,129.4,58.1,129,57.7z M128.1,62.9c-0.6,0.6-1.4,0.9-2.4,0.9h-1.7v-6.4h1.7c1,0,1.8,0.3,2.4,0.9
		c0.6,0.6,0.9,1.4,0.9,2.3C129,61.6,128.7,62.3,128.1,62.9z"/>
	<path id="XMLID_358_" class="st1" d="M138.2,56.3c-0.2,0-0.4,0.1-0.5,0.4l-2.9,7.1l-2.8-7.1c-0.1-0.3-0.3-0.4-0.6-0.4
		c-0.1,0-0.3,0.1-0.4,0.2c-0.1,0.1-0.1,0.2-0.1,0.3c0,0.1,0,0.2,0,0.3l3,7.3c0.2,0.4,0.4,0.6,0.7,0.6h0.3c0.3,0,0.6-0.2,0.7-0.6
		l3-7.3c0-0.1,0-0.1,0-0.3c0-0.1,0-0.2-0.1-0.3C138.6,56.4,138.5,56.3,138.2,56.3z"/>
	<path id="XMLID_357_" class="st1" d="M145.6,57.4c0.1,0,0.3-0.1,0.4-0.2c0.1-0.1,0.2-0.2,0.2-0.4s-0.1-0.3-0.2-0.4
		c-0.1-0.1-0.2-0.2-0.4-0.2h-4.9c-0.1,0-0.3,0.1-0.4,0.2c-0.1,0.1-0.2,0.2-0.2,0.4v7.4c0,0.1,0.1,0.3,0.2,0.4
		c0.1,0.1,0.2,0.2,0.4,0.2h4.9c0.1,0,0.3,0,0.4-0.1c0.1-0.1,0.2-0.2,0.2-0.4c0-0.1-0.1-0.3-0.2-0.4c-0.1-0.1-0.2-0.2-0.4-0.2h-4.3
		v-2.7h3.9c0.1,0,0.3-0.1,0.4-0.2c0.1-0.1,0.1-0.2,0.1-0.4c0-0.1-0.1-0.3-0.2-0.4c-0.1-0.1-0.2-0.1-0.4-0.1h-3.9v-2.7H145.6z"/>
	<path id="XMLID_354_" class="st1" d="M154.2,60.1c0.3-0.4,0.4-0.8,0.4-1.3c0-0.7-0.3-1.3-0.8-1.7c-0.6-0.5-1.4-0.7-2.5-0.7h-2.8
		c-0.1,0-0.3,0.1-0.4,0.2c-0.1,0.1-0.2,0.2-0.2,0.4v7.4c0,0.1,0.1,0.3,0.2,0.4c0.1,0.1,0.2,0.2,0.4,0.2c0.2,0,0.3-0.1,0.4-0.2
		c0.1-0.1,0.2-0.2,0.2-0.4v-2.8h2.5c0.5,0,0.8,0.1,1.1,0.3c0.3,0.2,0.4,0.4,0.6,0.7c0.1,0.3,0.2,0.8,0.2,1.4v0.4
		c0,0.2,0.1,0.3,0.2,0.4c0.1,0.1,0.2,0.1,0.4,0.1c0.2,0,0.3-0.1,0.4-0.2c0.1-0.1,0.2-0.2,0.2-0.4v-0.5c0-0.6-0.1-1.1-0.3-1.5
		c-0.3-0.7-0.7-1.1-1.3-1.3C153.5,60.8,153.9,60.6,154.2,60.1z M152.8,60.1c-0.4,0.3-1,0.4-1.6,0.4H149v-3.1h2.1
		c0.8,0,1.5,0.1,1.8,0.4c0.3,0.2,0.5,0.6,0.5,1.1C153.5,59.4,153.3,59.8,152.8,60.1z"/>
	<path id="XMLID_353_" class="st1" d="M162.2,56.4h-6c-0.1,0-0.3,0.1-0.4,0.2c-0.1,0.1-0.1,0.2-0.1,0.4c0,0.1,0.1,0.3,0.2,0.4
		c0.1,0.1,0.2,0.1,0.4,0.1h2.5v6.9c0,0.1,0.1,0.3,0.2,0.4c0.1,0.1,0.2,0.2,0.4,0.2c0.2,0,0.3-0.1,0.4-0.2c0.1-0.1,0.2-0.2,0.2-0.4
		v-6.9h2.5c0.1,0,0.3-0.1,0.4-0.2c0.1-0.1,0.1-0.2,0.1-0.4s0-0.3-0.1-0.4C162.5,56.4,162.4,56.4,162.2,56.4z"/>
	<path id="XMLID_352_" class="st1" d="M164.6,56.3c-0.1,0-0.3,0.1-0.4,0.2c-0.1,0.1-0.2,0.2-0.2,0.4v7.5c0,0.1,0.1,0.3,0.2,0.4
		c0.1,0.1,0.2,0.2,0.4,0.2c0.2,0,0.3-0.1,0.4-0.2c0.1-0.1,0.2-0.2,0.2-0.4v-7.5c0-0.2-0.1-0.3-0.2-0.4
		C164.9,56.4,164.8,56.3,164.6,56.3z"/>
	<path id="XMLID_351_" class="st1" d="M172.5,60.9c-0.2-0.2-0.5-0.3-0.8-0.4c-0.3-0.1-0.6-0.2-0.9-0.3c-0.3-0.1-0.6-0.2-0.9-0.2
		c-0.3-0.1-0.6-0.2-0.8-0.3c-0.5-0.2-0.8-0.6-0.8-1.1c0-0.4,0.2-0.8,0.6-1c0.4-0.2,0.9-0.4,1.5-0.4c0.7,0,1.3,0.1,1.8,0.3
		c0.2,0.1,0.3,0.1,0.4,0.1c0.1,0,0.2-0.1,0.3-0.2c0.1-0.1,0.1-0.2,0.1-0.3c0-0.2-0.1-0.4-0.4-0.5c-0.7-0.3-1.5-0.4-2.4-0.4
		c-1,0-1.8,0.2-2.3,0.7c-0.5,0.5-0.8,1-0.8,1.7c0,0.7,0.3,1.2,0.8,1.6c0.2,0.2,0.5,0.3,0.8,0.4c0.3,0.1,0.6,0.2,0.9,0.3
		c0.3,0.1,0.6,0.2,0.9,0.3c0.3,0.1,0.6,0.2,0.8,0.3c0.5,0.2,0.8,0.5,0.8,0.9c0,0.9-0.7,1.4-2.1,1.4c-0.5,0-1-0.1-1.4-0.2
		c-0.4-0.1-0.7-0.2-0.9-0.3c-0.2-0.1-0.3-0.1-0.4-0.1c-0.1,0-0.2,0.1-0.3,0.2c-0.1,0.1-0.1,0.2-0.1,0.3c0,0.1,0,0.2,0.1,0.3
		c0.1,0.1,0.1,0.2,0.2,0.2c0.9,0.4,1.9,0.6,2.9,0.6c0.9,0,1.7-0.2,2.3-0.7c0.6-0.4,0.8-1,0.8-1.7C173.3,61.9,173,61.3,172.5,60.9z"
		/>
	<path id="XMLID_350_" class="st1" d="M175.5,56.3c-0.1,0-0.3,0.1-0.4,0.2c-0.1,0.1-0.2,0.2-0.2,0.4v7.5c0,0.1,0.1,0.3,0.2,0.4
		c0.1,0.1,0.2,0.2,0.4,0.2c0.2,0,0.3-0.1,0.4-0.2c0.1-0.1,0.2-0.2,0.2-0.4v-7.5c0-0.2-0.1-0.3-0.2-0.4
		C175.8,56.4,175.7,56.3,175.5,56.3z"/>
	<path id="XMLID_349_" class="st1" d="M185.2,56.3c-0.1,0-0.3,0.1-0.4,0.2c-0.1,0.1-0.2,0.2-0.2,0.4v6.5l-4.7-6.7
		c-0.2-0.2-0.4-0.4-0.7-0.4h-0.1c-0.2,0-0.4,0.1-0.6,0.2c-0.2,0.2-0.2,0.3-0.2,0.6v7.2c0,0.1,0.1,0.3,0.2,0.4
		c0.1,0.1,0.2,0.2,0.4,0.2c0.2,0,0.3-0.1,0.4-0.2c0.1-0.1,0.2-0.2,0.2-0.4v-6.6l4.7,6.8c0.2,0.2,0.4,0.3,0.6,0.3h0.1
		c0.2,0,0.4-0.1,0.6-0.2c0.2-0.2,0.2-0.3,0.2-0.6v-7.2c0-0.2-0.1-0.3-0.2-0.4C185.5,56.4,185.4,56.3,185.2,56.3z"/>
	<path id="XMLID_348_" class="st1" d="M194.5,60.2h-2.4c-0.1,0-0.2,0-0.3,0.1c-0.1,0.1-0.1,0.2-0.1,0.4s0,0.3,0.1,0.4
		c0.1,0.1,0.2,0.1,0.3,0.1h2v2.2c-0.7,0.4-1.4,0.5-2.1,0.5c-1,0-1.8-0.3-2.4-0.9c-0.6-0.6-0.9-1.4-0.9-2.4c0-1,0.3-1.8,0.9-2.4
		c0.6-0.6,1.4-0.9,2.3-0.9c0.8,0,1.6,0.2,2.4,0.7c0.1,0,0.2,0.1,0.3,0.1s0.2,0,0.3-0.1c0.1-0.1,0.1-0.2,0.1-0.4
		c0-0.2-0.1-0.3-0.2-0.4c-0.4-0.2-0.8-0.5-1.3-0.6c-0.5-0.2-1.1-0.3-1.7-0.3c-1.2,0-2.2,0.4-3,1.2c-0.8,0.8-1.2,1.9-1.2,3.2
		c0,1.3,0.4,2.3,1.2,3.1c0.8,0.8,1.8,1.2,3.1,1.2c0.9,0,1.9-0.2,2.8-0.7c0.1-0.1,0.2-0.2,0.3-0.3c0.1-0.1,0.1-0.3,0.1-0.5v-2.7
		c0-0.2-0.1-0.3-0.2-0.4C194.8,60.3,194.7,60.2,194.5,60.2z"/>
	<path id="XMLID_347_" class="st1" d="M207.4,56.3c-0.1,0-0.3,0.1-0.4,0.2c-0.1,0.1-0.2,0.2-0.2,0.4v6.5l-4.7-6.7
		c-0.2-0.2-0.4-0.4-0.7-0.4h-0.1c-0.2,0-0.4,0.1-0.6,0.2c-0.2,0.2-0.2,0.3-0.2,0.6v7.2c0,0.1,0.1,0.3,0.2,0.4
		c0.1,0.1,0.2,0.2,0.4,0.2c0.2,0,0.3-0.1,0.4-0.2c0.1-0.1,0.2-0.2,0.2-0.4v-6.6l4.7,6.8c0.2,0.2,0.4,0.3,0.6,0.3h0.1
		c0.2,0,0.4-0.1,0.6-0.2c0.2-0.2,0.2-0.3,0.2-0.6v-7.2c0-0.2-0.1-0.3-0.2-0.4C207.7,56.4,207.5,56.3,207.4,56.3z"/>
	<path id="XMLID_346_" class="st1" d="M215.7,57.4c0.1,0,0.3-0.1,0.4-0.2c0.1-0.1,0.2-0.2,0.2-0.4s-0.1-0.3-0.2-0.4
		c-0.1-0.1-0.2-0.2-0.4-0.2h-4.9c-0.1,0-0.3,0.1-0.4,0.2c-0.1,0.1-0.2,0.2-0.2,0.4v7.4c0,0.1,0.1,0.3,0.2,0.4
		c0.1,0.1,0.2,0.2,0.4,0.2h4.9c0.1,0,0.3,0,0.4-0.1c0.1-0.1,0.2-0.2,0.2-0.4c0-0.1-0.1-0.3-0.2-0.4c-0.1-0.1-0.2-0.2-0.4-0.2h-4.3
		v-2.7h3.9c0.1,0,0.3-0.1,0.4-0.2c0.1-0.1,0.1-0.2,0.1-0.4c0-0.1-0.1-0.3-0.2-0.4c-0.1-0.1-0.2-0.1-0.4-0.1h-3.9v-2.7H215.7z"/>
	<path id="XMLID_345_" class="st1" d="M223.6,56.4h-6c-0.1,0-0.3,0.1-0.4,0.2c-0.1,0.1-0.1,0.2-0.1,0.4c0,0.1,0.1,0.3,0.2,0.4
		c0.1,0.1,0.2,0.1,0.4,0.1h2.5v6.9c0,0.1,0.1,0.3,0.2,0.4c0.1,0.1,0.2,0.2,0.4,0.2c0.2,0,0.3-0.1,0.4-0.2c0.1-0.1,0.2-0.2,0.2-0.4
		v-6.9h2.5c0.1,0,0.3-0.1,0.4-0.2c0.1-0.1,0.1-0.2,0.1-0.4s0-0.3-0.1-0.4C223.8,56.4,223.7,56.4,223.6,56.4z"/>
	<path id="XMLID_344_" class="st1" d="M235.6,56.3c-0.3,0-0.5,0.1-0.6,0.4l-2,6.7l-2.1-6.7c0-0.1-0.1-0.2-0.2-0.3
		c-0.1-0.1-0.2-0.1-0.4-0.1c-0.1,0-0.3,0-0.4,0.1c-0.1,0.1-0.2,0.2-0.2,0.3l-2,6.7l-2-6.7c-0.1-0.3-0.3-0.4-0.6-0.4
		c-0.1,0-0.3,0-0.4,0.1c-0.1,0.1-0.1,0.2-0.1,0.3c0,0.1,0,0.2,0,0.3l2.4,7.3c0.1,0.4,0.4,0.5,0.7,0.5c0.2,0,0.3-0.1,0.4-0.2
		s0.2-0.2,0.3-0.4l2-6.2l2,6.2c0,0.2,0.1,0.3,0.3,0.4c0.1,0.1,0.3,0.1,0.4,0.1c0.4,0,0.6-0.2,0.7-0.5l2.4-7.3c0-0.1,0-0.2,0-0.3
		c0-0.1,0-0.2-0.1-0.3C235.9,56.4,235.8,56.3,235.6,56.3z"/>
	<path id="XMLID_341_" class="st1" d="M241.2,56.3c-1.3,0-2.3,0.4-3.1,1.2c-0.8,0.8-1.2,1.9-1.2,3.1c0,1.3,0.4,2.3,1.2,3.1
		c0.8,0.8,1.8,1.2,3.1,1.2c1.3,0,2.3-0.4,3.1-1.2c0.8-0.8,1.1-1.9,1.2-3.1c0-1.3-0.4-2.3-1.2-3.1C243.5,56.7,242.5,56.3,241.2,56.3z
		 M243.6,63c-0.6,0.6-1.3,0.9-2.3,0.9s-1.8-0.3-2.3-0.9c-0.5-0.6-0.8-1.4-0.8-2.4c0-1,0.3-1.8,0.8-2.4c0.6-0.6,1.4-0.9,2.3-0.9
		c1,0,1.8,0.3,2.3,0.9c0.6,0.6,0.8,1.4,0.8,2.4C244.4,61.6,244.1,62.4,243.6,63z"/>
	<path id="XMLID_338_" class="st1" d="M253.6,60.1c0.3-0.4,0.4-0.8,0.4-1.3c0-0.7-0.3-1.3-0.8-1.7c-0.6-0.5-1.4-0.7-2.5-0.7h-2.8
		c-0.1,0-0.3,0.1-0.4,0.2c-0.1,0.1-0.2,0.2-0.2,0.4v7.4c0,0.1,0.1,0.3,0.2,0.4c0.1,0.1,0.2,0.2,0.4,0.2c0.2,0,0.3-0.1,0.4-0.2
		c0.1-0.1,0.2-0.2,0.2-0.4v-2.8h2.5c0.5,0,0.8,0.1,1.1,0.3c0.3,0.2,0.4,0.4,0.6,0.7c0.1,0.3,0.2,0.8,0.2,1.4v0.4
		c0,0.2,0.1,0.3,0.2,0.4c0.1,0.1,0.2,0.1,0.4,0.1s0.3-0.1,0.4-0.2c0.1-0.1,0.2-0.2,0.2-0.4v-0.5c0-0.6-0.1-1.1-0.3-1.5
		c-0.3-0.7-0.7-1.1-1.3-1.3C252.9,60.8,253.3,60.6,253.6,60.1z M252.2,60.1c-0.4,0.3-1,0.4-1.6,0.4h-2.2v-3.1h2.1
		c0.8,0,1.5,0.1,1.8,0.4c0.3,0.2,0.5,0.6,0.5,1.1C252.9,59.4,252.7,59.8,252.2,60.1z"/>
	<path id="XMLID_337_" class="st1" d="M259.2,60l2.8-2.8c0.1-0.1,0.1-0.2,0.1-0.3c0-0.2,0-0.3-0.1-0.4c-0.1-0.1-0.2-0.1-0.4-0.1
		c-0.2,0-0.3,0.1-0.4,0.2l-4.1,4.2v-3.8c0-0.2-0.1-0.3-0.2-0.4c-0.1-0.1-0.2-0.2-0.4-0.2c-0.1,0-0.3,0.1-0.4,0.2
		c-0.1,0.1-0.2,0.2-0.2,0.4v7.5c0,0.1,0.1,0.3,0.2,0.4c0.1,0.1,0.2,0.2,0.4,0.2c0.2,0,0.3-0.1,0.4-0.2c0.1-0.1,0.2-0.2,0.2-0.4v-2.3
		l1.4-1.4l3.1,4c0.1,0.1,0.3,0.2,0.4,0.2c0.2,0,0.3,0,0.4-0.1c0.1-0.1,0.1-0.2,0.1-0.4c0-0.1,0-0.3-0.1-0.4L259.2,60z"/>
</g>
<path id="XMLID_335_" class="st1" d="M130,36.8h-5.7c-0.3,0-0.6,0.1-0.8,0.4c-0.2,0.2-0.4,0.5-0.4,0.8c0,0.3,0.1,0.6,0.3,0.8
	c0.2,0.2,0.5,0.4,0.8,0.4h4.8v5.2c-1.6,0.8-3.3,1.3-5.1,1.3c-2.4,0-4.3-0.7-5.8-2.2c-1.4-1.4-2-3.3-2-5.6c0-2.4,0.7-4.4,2.2-5.8
	c1.4-1.4,3.3-2,5.5-2c1.9,0,3.8,0.5,5.6,1.6c0.2,0.1,0.4,0.1,0.7,0.1c0.3,0,0.6-0.1,0.8-0.4c0.2-0.2,0.3-0.5,0.3-0.9
	c0-0.4-0.2-0.7-0.6-0.9c-0.9-0.6-1.9-1.1-3-1.5c-1.1-0.4-2.5-0.6-4.1-0.6c-2.9,0-5.2,0.9-7.1,2.8c-1.9,2-2.9,4.5-2.9,7.5
	c0,3,1,5.5,2.8,7.4c1.8,1.9,4.3,2.9,7.3,2.9c2.2,0,4.4-0.5,6.6-1.6c0.3-0.1,0.6-0.4,0.8-0.7c0.2-0.3,0.3-0.7,0.3-1.1v-6.5
	c0-0.4-0.1-0.7-0.4-1C130.7,36.9,130.3,36.8,130,36.8z"/>
<path id="XMLID_332_" class="st1" d="M152.8,47.2c0.2,0.5,0.6,0.8,1.1,0.8c0.5,0,0.9-0.1,1.1-0.4c0.2-0.3,0.3-0.5,0.3-0.8
	c0-0.2,0-0.5-0.1-0.7l-7.3-17.3c-0.4-0.8-0.9-1.2-1.7-1.2h-0.3c-0.8,0-1.4,0.4-1.7,1.2l-7.3,17.3c-0.1,0.2-0.1,0.5-0.1,0.7
	c0,0.2,0.1,0.5,0.3,0.8c0.2,0.3,0.6,0.4,1.1,0.4c0.5,0,0.9-0.3,1.1-0.8l1.8-4.5h9.8L152.8,47.2z M142.2,40.3l3.9-9.4l3.9,9.4H142.2z
	"/>
<path id="XMLID_331_" class="st1" d="M174.8,46.5c0-0.4-0.1-0.7-0.4-0.9c-0.2-0.2-0.6-0.4-0.9-0.4h-9.4V28.9c0-0.4-0.1-0.7-0.4-0.9
	c-0.3-0.3-0.6-0.4-0.9-0.4s-0.7,0.1-0.9,0.4c-0.3,0.3-0.4,0.6-0.4,0.9v17c0,0.5,0.2,0.9,0.5,1.3c0.4,0.4,0.8,0.5,1.3,0.5h10.2
	c0.4,0,0.7-0.1,0.9-0.4C174.7,47.2,174.8,46.9,174.8,46.5z"/>
<path id="XMLID_328_" class="st1" d="M197.1,46.1l-7.3-17.3c-0.4-0.8-0.9-1.2-1.7-1.2h-0.3c-0.8,0-1.4,0.4-1.7,1.2l-7.3,17.3
	c-0.1,0.2-0.1,0.5-0.1,0.7c0,0.2,0.1,0.5,0.3,0.8c0.2,0.3,0.6,0.4,1.1,0.4c0.5,0,0.9-0.3,1.1-0.8l1.8-4.5h9.8l1.9,4.5
	c0.2,0.5,0.6,0.8,1.1,0.8c0.5,0,0.9-0.1,1.1-0.4c0.2-0.3,0.3-0.5,0.3-0.8C197.2,46.6,197.2,46.3,197.1,46.1z M184.1,40.3l3.9-9.4
	l3.9,9.4H184.1z"/>
<path id="XMLID_327_" class="st1" d="M211.1,36.2l6.6-6.6c0.2-0.2,0.4-0.5,0.4-0.8c0-0.4-0.1-0.7-0.4-0.9c-0.2-0.2-0.5-0.3-0.9-0.3
	c-0.4,0-0.7,0.2-0.9,0.5l-9.8,10v-9.1c0-0.4-0.1-0.7-0.4-0.9c-0.3-0.3-0.6-0.4-0.9-0.4c-0.4,0-0.7,0.1-0.9,0.4
	c-0.3,0.3-0.4,0.6-0.4,0.9v17.7c0,0.4,0.1,0.7,0.4,0.9c0.3,0.3,0.6,0.4,0.9,0.4c0.4,0,0.7-0.1,0.9-0.4c0.3-0.3,0.4-0.6,0.4-0.9v-5.4
	l3.3-3.3l7.4,9.5c0.3,0.3,0.6,0.5,1,0.5c0.4,0,0.7-0.1,0.9-0.4c0.2-0.2,0.4-0.5,0.4-0.9c0-0.3-0.1-0.6-0.3-0.9L211.1,36.2z"/>
<path id="XMLID_326_" class="st1" d="M231.4,45.6c-1.3,0-2.4-0.1-3.3-0.4c-0.9-0.2-1.6-0.5-2-0.6c-0.4-0.2-0.7-0.3-1-0.3
	c-0.3,0-0.5,0.1-0.7,0.4c-0.2,0.2-0.3,0.5-0.3,0.8c0,0.3,0.1,0.5,0.2,0.8c0.2,0.2,0.4,0.4,0.6,0.5c2.1,0.9,4.4,1.4,6.8,1.4
	c2.2,0,4-0.5,5.4-1.6c1.3-1,2-2.4,2-4c0-1.8-0.7-3.1-1.9-4c-0.6-0.4-1.2-0.7-1.9-1c-0.7-0.3-1.5-0.5-2.2-0.7
	c-0.8-0.2-1.5-0.4-2.2-0.5c-0.7-0.2-1.4-0.4-2-0.6c-1.3-0.6-1.9-1.4-1.9-2.5c0-1,0.5-1.8,1.5-2.4c1-0.6,2.2-0.8,3.6-0.8
	c1.6,0,3,0.2,4.3,0.7c0.4,0.1,0.8,0.2,1,0.2c0.2,0,0.5-0.1,0.7-0.4c0.2-0.3,0.3-0.5,0.3-0.8c0-0.6-0.3-1-0.8-1.2
	c-1.7-0.6-3.6-0.9-5.7-0.9c-2.3,0-4.2,0.6-5.5,1.8c-1.3,1.1-1.9,2.5-1.9,4.1c0,1.6,0.7,2.8,1.9,3.8c0.6,0.4,1.2,0.8,2,1
	c0.7,0.3,1.5,0.5,2.2,0.7c0.7,0.2,1.5,0.4,2.2,0.6c0.7,0.2,1.4,0.4,1.9,0.6c1.3,0.5,1.9,1.3,1.9,2.2
	C236.4,44.5,234.7,45.6,231.4,45.6z"/>
<path id="XMLID_325_" class="st1" d="M247,48c0.4,0,0.7-0.1,0.9-0.4c0.3-0.3,0.4-0.6,0.4-0.9V28.9c0-0.4-0.1-0.7-0.4-0.9
	c-0.3-0.3-0.6-0.4-0.9-0.4c-0.4,0-0.7,0.1-0.9,0.4c-0.3,0.3-0.4,0.6-0.4,0.9v17.7c0,0.4,0.1,0.7,0.4,0.9C246.3,47.8,246.6,48,247,48
	z"/>
<path id="XMLID_322_" class="st1" d="M275.5,37.8c-0.1-3.1-1-5.5-2.8-7.4c-1.8-1.9-4.3-2.9-7.3-2.9c-3,0-5.5,1-7.3,2.9
	c-1.8,1.9-2.8,4.4-2.8,7.4c0,3,1,5.5,2.8,7.4c1.8,1.9,4.3,2.9,7.3,2.9c3,0,5.5-1,7.3-2.9C274.5,43.3,275.4,40.8,275.5,37.8z
	 M265.4,45.6c-2.3,0-4.2-0.7-5.5-2.2c-1.3-1.4-1.9-3.3-1.9-5.6c0-2.3,0.6-4.2,1.9-5.6c1.4-1.5,3.2-2.2,5.5-2.2
	c2.3,0,4.2,0.7,5.5,2.2c1.3,1.5,2,3.3,2,5.6c0,2.3-0.7,4.2-2,5.6C269.6,44.9,267.8,45.6,265.4,45.6z"/>
<path id="XMLID_321_" class="st1" d="M299.6,28c-0.3-0.3-0.6-0.4-0.9-0.4c-0.4,0-0.7,0.1-0.9,0.4c-0.3,0.3-0.4,0.6-0.4,0.9v15.5
	l-11-16c-0.5-0.6-1-0.9-1.6-0.9h-0.4c-0.5,0-1,0.2-1.4,0.6c-0.4,0.4-0.5,0.8-0.5,1.3v17.2c0,0.4,0.1,0.7,0.4,0.9
	c0.3,0.3,0.6,0.4,0.9,0.4c0.4,0,0.7-0.1,0.9-0.4c0.3-0.3,0.4-0.6,0.4-0.9V31.1l11.1,16.1c0.4,0.5,0.9,0.8,1.5,0.8h0.4
	c0.5,0,1-0.2,1.3-0.5c0.4-0.4,0.6-0.8,0.6-1.3V28.9C300,28.6,299.9,28.3,299.6,28z"/>
</svg>
