<?xml version="1.0" encoding="utf-8"?>
<!-- Generator: Adobe Illustrator 22.0.1, SVG Export Plug-In . SVG Version: 6.00 Build 0)  -->
<svg version="1.1" id="Слой_1" xmlns="http://www.w3.org/2000/svg" xmlns:xlink="http://www.w3.org/1999/xlink" x="0px" y="0px"
	 viewBox="0 0 250 115.4" style="enable-background:new 0 0 250 115.4;" xml:space="preserve">
<style type="text/css">
	.st0{fill:#FF5628;}
	.st1{fill:#FF901E;}
	.st2{fill:#FFBD11;}
	.st3{fill:#FFE25F;}
	.st4{fill:#0D9DDB;}
	.st5{fill:#0B81B4;}
	.st6{fill:#FFFFFF;}
	.st7{fill:#F2F2F2;}
	.st8{display:none;}
	.st9{display:inline;fill:#0B81B4;}
	.st10{display:inline;fill:#ACE0F9;}
	.st11{fill:#B5B0B6;}
	.st12{fill:#FF3404;}
</style>
<g>
	<g>
		<g>
			<path class="st0" d="M50,81.7c-13.2,0-50-24-50-24s36.8-24,50-24s30.2,10.7,30.2,24S63.3,81.7,50,81.7z"/>
			<path class="st1" d="M54.1,76.2c-10.2,0-38.6-18.5-38.6-18.5s28.4-18.5,38.6-18.5s23.3,8.3,23.3,18.5S64.3,76.2,54.1,76.2z"/>
			<path class="st2" d="M59,72.1c-7.9,0-30-14.4-30-14.4S51,43.3,59,43.3c7.9,0,18.1,6.4,18.1,14.4S66.9,72.1,59,72.1z"/>
			<path class="st3" d="M63.1,67.1c-5.2,0-19.6-9.4-19.6-9.4s14.4-9.4,19.6-9.4c5.2,0,11.9,4.2,11.9,9.4S68.3,67.1,63.1,67.1z"/>
			<g>
				<path class="st4" d="M132.5,23.6c-38.9-38.9-48.2-23.2-91.3,0l29.6,13.2L132.5,23.6z"/>
				<path class="st4" d="M132.5,91.8c-38.9,38.9-48.2,23.2-91.3,0l29.6-13.2L132.5,91.8z"/>
				<path class="st5" d="M41.2,91.8c13.5,7.3,23.7,13.8,32.5,18.1c-1-9.1,2.9-22.1,32.2-23.8l-35-7.5L41.2,91.8z"/>
				<path class="st5" d="M41.2,23.6l29.6,13.2l60.7-13C96.9,27.4,68.3,31,65.7,9.7C58.8,13.6,50.9,18.4,41.2,23.6z"/>
				<path class="st6" d="M176.7,95.3c40.6-1.4,73.3-37.6,73.3-37.6s-32.7-36.2-73.3-37.6C136.1,18.7,70.9,36.8,70.9,36.8l0,41.7
					C70.9,78.6,136.1,96.7,176.7,95.3z"/>
				<path class="st7" d="M228.4,39.3c-13.2-9.2-31.5-18.5-51.7-19.2C136.1,18.7,70.9,36.8,70.9,36.8l0,41.7c0,0,3.8,1,10.1,2.6
					C73.1,40,117.2,14.3,228.4,39.3z"/>
				<path class="st4" d="M216.2,83.7C236.5,72.6,250,57.7,250,57.7s-13.5-14.9-33.8-25.9V83.7z"/>
				<path class="st5" d="M216.2,31.8v51.9c0.5-0.3,1.1-0.6,1.6-0.9c-1.9-20.1-0.1-49.8,32.2-25.1C250,57.7,236.5,42.8,216.2,31.8z"
					/>
				<g class="st8">
					
						<ellipse transform="matrix(2.671423e-02 -0.9996 0.9996 2.671423e-02 128.758 245.3223)" class="st9" cx="190.4" cy="56.5" rx="13.1" ry="13.1"/>
					<circle class="st10" cx="190.4" cy="56.5" r="10.4"/>
				</g>
				<g>
					<circle class="st11" cx="213.7" cy="33.6" r="0.9"/>
					<path class="st11" d="M213.7,41.1c-0.5,0-0.9-0.4-0.9-0.9c0-0.5,0.4-0.9,0.9-0.9c0.5,0,0.9,0.4,0.9,0.9
						C214.5,40.7,214.1,41.1,213.7,41.1z"/>
					<circle class="st11" cx="213.7" cy="46.9" r="0.9"/>
					<path class="st11" d="M213.7,54.4c-0.5,0-0.9-0.4-0.9-0.9c0-0.5,0.4-0.9,0.9-0.9c0.5,0,0.9,0.4,0.9,0.9
						C214.5,54.1,214.1,54.4,213.7,54.4z"/>
					<path class="st11" d="M213.7,61.1c-0.5,0-0.9-0.4-0.9-0.9c0-0.5,0.4-0.9,0.9-0.9c0.5,0,0.9,0.4,0.9,0.9
						C214.5,60.7,214.1,61.1,213.7,61.1z"/>
					<circle class="st11" cx="213.7" cy="66.9" r="0.9"/>
					<path class="st11" d="M213.7,74.4c-0.5,0-0.9-0.4-0.9-0.9c0-0.5,0.4-0.9,0.9-0.9c0.5,0,0.9,0.4,0.9,0.9S214.1,74.4,213.7,74.4z
						"/>
					
						<ellipse transform="matrix(0.7071 -0.7071 0.7071 0.7071 5.877 174.564)" class="st11" cx="213.7" cy="80.2" rx="0.9" ry="0.9"/>
				</g>
				<g>
					<path class="st11" d="M73.4,40.4c-0.5,0-1-0.4-1-1c0-0.5,0.4-1,1-1c0.5,0,1,0.4,1,1C74.4,39.9,74,40.4,73.4,40.4z"/>
					<path class="st11" d="M73.4,47.7c-0.5,0-1-0.4-1-1c0-0.5,0.4-1,1-1c0.5,0,1,0.4,1,1C74.4,47.3,74,47.7,73.4,47.7z"/>
					<path class="st11" d="M73.4,55.1c-0.5,0-1-0.4-1-1c0-0.5,0.4-1,1-1c0.5,0,1,0.4,1,1C74.4,54.6,74,55.1,73.4,55.1z"/>
					<path class="st11" d="M73.4,62.4c-0.5,0-1-0.4-1-1c0-0.5,0.4-1,1-1s1,0.4,1,1C74.4,62,74,62.4,73.4,62.4z"/>
					<path class="st11" d="M73.4,69.7c-0.5,0-1-0.4-1-1c0-0.5,0.4-1,1-1s1,0.4,1,1C74.4,69.3,74,69.7,73.4,69.7z"/>
					<path class="st11" d="M73.4,77.1c-0.5,0-1-0.4-1-1c0-0.5,0.4-1,1-1c0.5,0,1,0.4,1,1C74.4,76.7,74,77.1,73.4,77.1z"/>
				</g>
			</g>
			<path class="st6" d="M246.8,58.4c0,0-8.3,9.5-27.6,21.8C219.2,80.2,230.5,70.5,246.8,58.4z"/>
		</g>
	</g>
	<g>
		<path class="st12" d="M116,54.3h14.3v18.6c-2.3,0.8-4.5,1.3-6.5,1.6c-2,0.3-4.1,0.5-6.3,0.5c-5.4,0-9.6-1.6-12.4-4.8
			c-2.9-3.2-4.3-7.8-4.3-13.7c0-5.8,1.7-10.3,5-13.6c3.3-3.2,7.9-4.9,13.8-4.9c3.7,0,7.2,0.7,10.7,2.2l-2.5,6.1
			c-2.6-1.3-5.4-2-8.2-2c-3.3,0-5.9,1.1-7.9,3.3c-2,2.2-3,5.2-3,8.9c0,3.9,0.8,6.9,2.4,8.9c1.6,2.1,3.9,3.1,7,3.1
			c1.6,0,3.2-0.2,4.8-0.5v-7.5H116V54.3z"/>
		<path class="st12" d="M171.4,56.4c0,6-1.5,10.5-4.4,13.7c-3,3.2-7.2,4.8-12.7,4.8s-9.7-1.6-12.7-4.8c-3-3.2-4.4-7.8-4.4-13.8
			s1.5-10.6,4.4-13.7c3-3.2,7.2-4.7,12.7-4.7s9.7,1.6,12.7,4.8C170,45.9,171.4,50.5,171.4,56.4z M145.2,56.4c0,4,0.8,7,2.3,9.1
			c1.5,2,3.8,3,6.8,3c6.1,0,9.1-4,9.1-12.1c0-8.1-3-12.1-9.1-12.1c-3,0-5.3,1-6.9,3.1C146,49.4,145.2,52.4,145.2,56.4z"/>
		<path class="st12" d="M177.2,70.9c0-1.4,0.4-2.4,1.1-3.1c0.7-0.7,1.8-1.1,3.2-1.1c1.4,0,2.4,0.4,3.2,1.1c0.7,0.7,1.1,1.8,1.1,3.1
			c0,1.3-0.4,2.3-1.1,3.1c-0.8,0.7-1.8,1.1-3.1,1.1c-1.4,0-2.4-0.4-3.2-1.1C177.6,73.3,177.2,72.3,177.2,70.9z M184.6,62.5h-6
			l-1.3-24h8.5L184.6,62.5z"/>
	</g>
</g>
</svg>
